<svg xmlns="http://www.w3.org/2000/svg" id="Capa_1" viewBox="0 0 600 600"><path d="m521.03,335.96l-31.08,1.08,43.88-63.73-30.35-20.9-21.91,31.82-21.89-32.18,63.17-.7,1.77,3.09,5.52-3.17,27.05-.3-.41-36.85-12.73.14-61.45-107.12,2.75-23.2-17.24-2.05-1.73-3.01-4.05,2.32-101.98-12.1-.08-1.7-10.33.46-44.58-5.29-.87,7.33-125.28,5.62.59,13.21L63.23,218.88l.81.73-7.59.08.41,36.85,44.51-.5-24.63,22.91,47.56,51.13,48.67-42.48,54.35,58.53-142.86,4.95,1.28,36.83,436.57-15.12-1.28-36.83Zm-161.67,5.6l73.39-63.6,40.57,59.65-113.95,3.95Zm-1.4-47.55l-38.03-40.4,85.75-.96-47.72,41.36Zm-9.36-189.19l96.78,11.48,56.47,98.42-389.31,4.34,96.75-108,139.31-6.25Zm-69.82,149.25l-46.09,43.7-39.69-42.74,85.78-.96Zm-173.08,1.93l48.06-.54-26.8,23.39-21.26-22.86Zm193.56,29.42l53.07,56.39-116.82,4.05,63.75-60.44Z"></path><path d="m521.74,398.44l-.05-5.81-397.38,3.55-.62-3.74-36.35,6.04,16.16,97.34.09,18.63h3s.59,3.53.59,3.53l22-3.65,354.04-1.66,35.24,5.7.95-5.87,4.65-.02-.13-27.88,13.53-83.61-15.72-2.54Zm-391.32,34.54l365.06-3.26-7.46,46.07-350.22,1.64-7.38-44.45Z"></path></svg>